<mxfile host="app.diagrams.net" modified="2021-03-13T05:29:07.765Z" agent="5.0 (Macintosh; Intel Mac OS X 10_15_4) AppleWebKit/537.36 (KHTML, like Gecko) Chrome/88.0.4324.192 Safari/537.36" etag="x5whFjk8bJGrU1rDk-aj" version="14.4.4" type="github">
  <diagram name="ns react UI component diagram " id="42789a77-a242-8287-6e28-9cd8cfd52e62">
    <mxGraphModel dx="2404" dy="1553" grid="1" gridSize="10" guides="1" tooltips="1" connect="1" arrows="1" fold="1" page="1" pageScale="1" pageWidth="1100" pageHeight="850" background="#ffffff" math="0" shadow="0">
      <root>
        <mxCell id="0" />
        <mxCell id="1" parent="0" />
        <mxCell id="Q6YV-AhHRd9khnx2x_jg-10" value="" style="edgeStyle=orthogonalEdgeStyle;rounded=0;orthogonalLoop=1;jettySize=auto;html=1;" edge="1" parent="1" source="Q6YV-AhHRd9khnx2x_jg-9" target="Q6YV-AhHRd9khnx2x_jg-7">
          <mxGeometry relative="1" as="geometry" />
        </mxCell>
        <mxCell id="1ea317790d2ca983-12" style="edgeStyle=none;rounded=1;html=1;labelBackgroundColor=none;startArrow=none;startFill=0;startSize=5;endArrow=classicThin;endFill=1;endSize=5;jettySize=auto;orthogonalLoop=1;strokeColor=#B3B3B3;strokeWidth=1;fontFamily=Verdana;fontSize=12" parent="1" source="1ea317790d2ca983-1" target="1ea317790d2ca983-2" edge="1">
          <mxGeometry relative="1" as="geometry" />
        </mxCell>
        <mxCell id="1ea317790d2ca983-13" value="relation" style="edgeStyle=none;rounded=1;html=1;labelBackgroundColor=none;startArrow=none;startFill=0;startSize=5;endArrow=classicThin;endFill=1;endSize=5;jettySize=auto;orthogonalLoop=1;strokeColor=#B3B3B3;strokeWidth=1;fontFamily=Verdana;fontSize=12" parent="1" source="1ea317790d2ca983-1" target="1ea317790d2ca983-9" edge="1">
          <mxGeometry relative="1" as="geometry" />
        </mxCell>
        <mxCell id="Q6YV-AhHRd9khnx2x_jg-2" value="" style="edgeStyle=orthogonalEdgeStyle;rounded=0;orthogonalLoop=1;jettySize=auto;html=1;exitX=0.442;exitY=1.04;exitDx=0;exitDy=0;exitPerimeter=0;" edge="1" parent="1" source="Q6YV-AhHRd9khnx2x_jg-25" target="1ea317790d2ca983-1">
          <mxGeometry relative="1" as="geometry">
            <Array as="points">
              <mxPoint x="-319" y="20" />
              <mxPoint x="-67" y="20" />
            </Array>
          </mxGeometry>
        </mxCell>
        <mxCell id="1ea317790d2ca983-1" value="Layout" style="ellipse;whiteSpace=wrap;html=1;rounded=0;shadow=1;comic=0;labelBackgroundColor=none;strokeWidth=1;fontFamily=Verdana;fontSize=12;align=center;fillColor=#d5e8d4;strokeColor=#82b366;" parent="1" vertex="1">
          <mxGeometry x="-112.5" y="50" width="122.5" height="70" as="geometry" />
        </mxCell>
        <mxCell id="1ea317790d2ca983-21" value="relation" style="edgeStyle=none;rounded=1;html=1;labelBackgroundColor=none;startArrow=none;startFill=0;startSize=5;endArrow=classicThin;endFill=1;endSize=5;jettySize=auto;orthogonalLoop=1;strokeColor=#B3B3B3;strokeWidth=1;fontFamily=Verdana;fontSize=12;exitX=0.438;exitY=1.011;exitDx=0;exitDy=0;exitPerimeter=0;" parent="1" source="Q6YV-AhHRd9khnx2x_jg-34" edge="1">
          <mxGeometry relative="1" as="geometry">
            <mxPoint x="258.68805643536325" y="541.6451112943828" as="targetPoint" />
          </mxGeometry>
        </mxCell>
        <mxCell id="1ea317790d2ca983-22" value="relation" style="edgeStyle=none;rounded=1;html=1;labelBackgroundColor=none;startArrow=none;startFill=0;startSize=5;endArrow=classicThin;endFill=1;endSize=5;jettySize=auto;orthogonalLoop=1;strokeColor=#B3B3B3;strokeWidth=1;fontFamily=Verdana;fontSize=12;exitX=0.616;exitY=1.033;exitDx=0;exitDy=0;exitPerimeter=0;" parent="1" source="Q6YV-AhHRd9khnx2x_jg-34" target="1ea317790d2ca983-6" edge="1">
          <mxGeometry relative="1" as="geometry" />
        </mxCell>
        <mxCell id="Q6YV-AhHRd9khnx2x_jg-33" value="" style="edgeStyle=orthogonalEdgeStyle;rounded=0;orthogonalLoop=1;jettySize=auto;html=1;exitX=0.5;exitY=1;exitDx=0;exitDy=0;" edge="1" parent="1" source="1ea317790d2ca983-2" target="Q6YV-AhHRd9khnx2x_jg-32">
          <mxGeometry relative="1" as="geometry">
            <Array as="points">
              <mxPoint x="-51" y="280" />
              <mxPoint x="-209" y="280" />
            </Array>
          </mxGeometry>
        </mxCell>
        <mxCell id="Q6YV-AhHRd9khnx2x_jg-35" value="" style="edgeStyle=orthogonalEdgeStyle;rounded=0;orthogonalLoop=1;jettySize=auto;html=1;entryX=0.5;entryY=0;entryDx=0;entryDy=0;" edge="1" parent="1" target="Q6YV-AhHRd9khnx2x_jg-34">
          <mxGeometry relative="1" as="geometry">
            <mxPoint x="10" y="210" as="sourcePoint" />
            <Array as="points">
              <mxPoint x="333" y="210" />
            </Array>
          </mxGeometry>
        </mxCell>
        <mxCell id="1ea317790d2ca983-2" value="LeftNav" style="ellipse;whiteSpace=wrap;html=1;rounded=0;shadow=1;comic=0;labelBackgroundColor=none;strokeWidth=1;fontFamily=Verdana;fontSize=12;align=center;fillColor=#fff2cc;strokeColor=#d6b656;" parent="1" vertex="1">
          <mxGeometry x="-111.25" y="170" width="120" height="80" as="geometry" />
        </mxCell>
        <mxCell id="1ea317790d2ca983-6" value="&lt;span&gt;Card&lt;br&gt;(Main content of page)&lt;br&gt;&lt;/span&gt;" style="ellipse;whiteSpace=wrap;html=1;rounded=0;shadow=1;comic=0;labelBackgroundColor=none;strokeWidth=1;fontFamily=Verdana;fontSize=12;align=center;gradientColor=#d5739d;fillColor=#e6d0de;strokeColor=#996185;" parent="1" vertex="1">
          <mxGeometry x="430" y="530" width="200" height="110" as="geometry" />
        </mxCell>
        <mxCell id="1ea317790d2ca983-7" value="&lt;span&gt;PageHeader TitleBlock&lt;br&gt;(Title of page)&lt;br&gt;&lt;/span&gt;" style="ellipse;whiteSpace=wrap;html=1;rounded=0;shadow=1;comic=0;labelBackgroundColor=none;strokeWidth=1;fontFamily=Verdana;fontSize=12;align=center;gradientColor=#ffd966;fillColor=#fff2cc;strokeColor=#d6b656;" parent="1" vertex="1">
          <mxGeometry x="150" y="540" width="177.5" height="110" as="geometry" />
        </mxCell>
        <mxCell id="1ea317790d2ca983-9" value="Mobile Layout" style="ellipse;whiteSpace=wrap;html=1;rounded=0;shadow=1;comic=0;labelBackgroundColor=none;strokeWidth=1;fontFamily=Verdana;fontSize=12;align=center;gradientColor=#ffd966;fillColor=#fff2cc;strokeColor=#d6b656;" parent="1" vertex="1">
          <mxGeometry x="-327.5" y="175" width="75" height="75" as="geometry" />
        </mxCell>
        <mxCell id="Q6YV-AhHRd9khnx2x_jg-4" value="" style="edgeStyle=orthogonalEdgeStyle;rounded=0;orthogonalLoop=1;jettySize=auto;html=1;" edge="1" parent="1" source="Q6YV-AhHRd9khnx2x_jg-3" target="Q6YV-AhHRd9khnx2x_jg-1">
          <mxGeometry relative="1" as="geometry" />
        </mxCell>
        <mxCell id="Q6YV-AhHRd9khnx2x_jg-1" value="Performance" style="ellipse;whiteSpace=wrap;html=1;rounded=0;shadow=1;comic=0;labelBackgroundColor=none;strokeWidth=1;fontFamily=Verdana;fontSize=12;align=center;fillColor=#dae8fc;strokeColor=#6c8ebf;gradientColor=#7ea6e0;" vertex="1" parent="1">
          <mxGeometry x="140" y="-90" width="110" height="80" as="geometry" />
        </mxCell>
        <mxCell id="Q6YV-AhHRd9khnx2x_jg-6" value="" style="edgeStyle=orthogonalEdgeStyle;rounded=0;orthogonalLoop=1;jettySize=auto;html=1;" edge="1" parent="1" source="Q6YV-AhHRd9khnx2x_jg-5" target="Q6YV-AhHRd9khnx2x_jg-3">
          <mxGeometry relative="1" as="geometry" />
        </mxCell>
        <mxCell id="Q6YV-AhHRd9khnx2x_jg-20" value="" style="edgeStyle=orthogonalEdgeStyle;rounded=0;orthogonalLoop=1;jettySize=auto;html=1;entryX=0.5;entryY=0;entryDx=0;entryDy=0;" edge="1" parent="1" source="Q6YV-AhHRd9khnx2x_jg-3" target="Q6YV-AhHRd9khnx2x_jg-19">
          <mxGeometry relative="1" as="geometry">
            <mxPoint x="55" y="-140" as="targetPoint" />
            <Array as="points">
              <mxPoint x="195" y="-150" />
              <mxPoint x="20" y="-150" />
            </Array>
          </mxGeometry>
        </mxCell>
        <mxCell id="Q6YV-AhHRd9khnx2x_jg-21" value="" style="edgeStyle=orthogonalEdgeStyle;rounded=0;orthogonalLoop=1;jettySize=auto;html=1;" edge="1" parent="1" source="Q6YV-AhHRd9khnx2x_jg-3" target="Q6YV-AhHRd9khnx2x_jg-22">
          <mxGeometry relative="1" as="geometry">
            <mxPoint x="320" y="-70" as="targetPoint" />
            <Array as="points">
              <mxPoint x="195" y="-150" />
              <mxPoint x="345" y="-150" />
            </Array>
          </mxGeometry>
        </mxCell>
        <mxCell id="Q6YV-AhHRd9khnx2x_jg-23" value="" style="edgeStyle=orthogonalEdgeStyle;rounded=0;orthogonalLoop=1;jettySize=auto;html=1;" edge="1" parent="1" source="Q6YV-AhHRd9khnx2x_jg-3" target="Q6YV-AhHRd9khnx2x_jg-24">
          <mxGeometry relative="1" as="geometry">
            <mxPoint x="460" y="-90" as="targetPoint" />
            <Array as="points">
              <mxPoint x="195" y="-150" />
              <mxPoint x="510" y="-150" />
            </Array>
          </mxGeometry>
        </mxCell>
        <mxCell id="Q6YV-AhHRd9khnx2x_jg-3" value="Authenticated Route" style="ellipse;whiteSpace=wrap;html=1;rounded=0;shadow=1;comic=0;labelBackgroundColor=none;strokeWidth=1;fontFamily=Verdana;fontSize=12;align=center;gradientColor=#d5739d;fillColor=#e6d0de;strokeColor=#996185;" vertex="1" parent="1">
          <mxGeometry x="140" y="-250" width="110" height="60" as="geometry" />
        </mxCell>
        <mxCell id="Q6YV-AhHRd9khnx2x_jg-8" value="" style="edgeStyle=orthogonalEdgeStyle;rounded=0;orthogonalLoop=1;jettySize=auto;html=1;" edge="1" parent="1" source="Q6YV-AhHRd9khnx2x_jg-7" target="Q6YV-AhHRd9khnx2x_jg-5">
          <mxGeometry relative="1" as="geometry" />
        </mxCell>
        <mxCell id="Q6YV-AhHRd9khnx2x_jg-12" value="" style="edgeStyle=orthogonalEdgeStyle;rounded=0;orthogonalLoop=1;jettySize=auto;html=1;" edge="1" parent="1" source="Q6YV-AhHRd9khnx2x_jg-5" target="Q6YV-AhHRd9khnx2x_jg-11">
          <mxGeometry relative="1" as="geometry" />
        </mxCell>
        <mxCell id="Q6YV-AhHRd9khnx2x_jg-14" value="" style="edgeStyle=orthogonalEdgeStyle;rounded=0;orthogonalLoop=1;jettySize=auto;html=1;" edge="1" parent="1" source="Q6YV-AhHRd9khnx2x_jg-5" target="Q6YV-AhHRd9khnx2x_jg-13">
          <mxGeometry relative="1" as="geometry" />
        </mxCell>
        <mxCell id="Q6YV-AhHRd9khnx2x_jg-5" value="Switch" style="ellipse;whiteSpace=wrap;html=1;rounded=0;shadow=1;comic=0;labelBackgroundColor=none;strokeWidth=1;fontFamily=Verdana;fontSize=12;align=center;gradientColor=#ffa500;fillColor=#ffcd28;strokeColor=#d79b00;" vertex="1" parent="1">
          <mxGeometry x="140" y="-360" width="110" height="60" as="geometry" />
        </mxCell>
        <mxCell id="Q6YV-AhHRd9khnx2x_jg-7" value="Landing Route" style="ellipse;whiteSpace=wrap;html=1;rounded=0;shadow=1;comic=0;labelBackgroundColor=none;strokeWidth=1;fontFamily=Verdana;fontSize=12;align=center;fillColor=#d0cee2;strokeColor=#56517e;" vertex="1" parent="1">
          <mxGeometry x="140" y="-450" width="110" height="60" as="geometry" />
        </mxCell>
        <mxCell id="Q6YV-AhHRd9khnx2x_jg-9" value="App" style="ellipse;whiteSpace=wrap;html=1;rounded=0;shadow=1;comic=0;labelBackgroundColor=none;strokeWidth=1;fontFamily=Verdana;fontSize=12;align=center;fillColor=#dae8fc;strokeColor=#6c8ebf;" vertex="1" parent="1">
          <mxGeometry x="140" y="-550" width="110" height="60" as="geometry" />
        </mxCell>
        <mxCell id="Q6YV-AhHRd9khnx2x_jg-27" value="" style="edgeStyle=orthogonalEdgeStyle;rounded=0;orthogonalLoop=1;jettySize=auto;html=1;" edge="1" parent="1" source="Q6YV-AhHRd9khnx2x_jg-11" target="Q6YV-AhHRd9khnx2x_jg-26">
          <mxGeometry relative="1" as="geometry" />
        </mxCell>
        <mxCell id="Q6YV-AhHRd9khnx2x_jg-11" value="Route" style="ellipse;whiteSpace=wrap;html=1;rounded=0;shadow=1;comic=0;labelBackgroundColor=none;strokeWidth=1;fontFamily=Verdana;fontSize=12;align=center;gradientColor=#b3b3b3;fillColor=#f5f5f5;strokeColor=#666666;" vertex="1" parent="1">
          <mxGeometry x="-210" y="-240" width="110" height="60" as="geometry" />
        </mxCell>
        <mxCell id="Q6YV-AhHRd9khnx2x_jg-13" value="Redirect" style="ellipse;whiteSpace=wrap;html=1;rounded=0;shadow=1;comic=0;labelBackgroundColor=none;strokeWidth=1;fontFamily=Verdana;fontSize=12;align=center;" vertex="1" parent="1">
          <mxGeometry x="510" y="-250" width="110" height="60" as="geometry" />
        </mxCell>
        <mxCell id="Q6YV-AhHRd9khnx2x_jg-19" value="Device Logs" style="ellipse;whiteSpace=wrap;html=1;" vertex="1" parent="1">
          <mxGeometry x="-40" y="-85" width="120" height="60" as="geometry" />
        </mxCell>
        <mxCell id="Q6YV-AhHRd9khnx2x_jg-22" value="Threat Logs" style="ellipse;whiteSpace=wrap;html=1;" vertex="1" parent="1">
          <mxGeometry x="290" y="-90" width="110" height="70" as="geometry" />
        </mxCell>
        <mxCell id="Q6YV-AhHRd9khnx2x_jg-24" value="Alert History" style="ellipse;whiteSpace=wrap;html=1;" vertex="1" parent="1">
          <mxGeometry x="450" y="-90" width="120" height="70" as="geometry" />
        </mxCell>
        <mxCell id="Q6YV-AhHRd9khnx2x_jg-25" value="Protection Home" style="ellipse;whiteSpace=wrap;html=1;fillColor=#fff2cc;strokeColor=#d6b656;" vertex="1" parent="1">
          <mxGeometry x="-390" y="-120" width="160" height="60" as="geometry" />
        </mxCell>
        <mxCell id="Q6YV-AhHRd9khnx2x_jg-26" value="Logout" style="ellipse;whiteSpace=wrap;html=1;fillColor=#ffff88;strokeColor=#36393d;" vertex="1" parent="1">
          <mxGeometry x="-200" y="-120" width="120" height="60" as="geometry" />
        </mxCell>
        <mxCell id="Q6YV-AhHRd9khnx2x_jg-28" value="" style="edgeStyle=orthogonalEdgeStyle;rounded=0;orthogonalLoop=1;jettySize=auto;html=1;entryX=0.5;entryY=0;entryDx=0;entryDy=0;" edge="1" parent="1" target="Q6YV-AhHRd9khnx2x_jg-25">
          <mxGeometry relative="1" as="geometry">
            <mxPoint x="-155" y="-160" as="sourcePoint" />
            <mxPoint x="-130" y="-110" as="targetPoint" />
            <Array as="points">
              <mxPoint x="-203" y="-160" />
              <mxPoint x="-290" y="-160" />
            </Array>
          </mxGeometry>
        </mxCell>
        <mxCell id="Q6YV-AhHRd9khnx2x_jg-29" value="&lt;span&gt;Global Navigation with Context Switcher&lt;/span&gt;" style="ellipse;whiteSpace=wrap;html=1;rounded=0;shadow=1;comic=0;labelBackgroundColor=none;strokeWidth=1;fontFamily=Verdana;fontSize=12;align=center;" vertex="1" parent="1">
          <mxGeometry x="-310" y="500" width="160" height="90" as="geometry" />
        </mxCell>
        <mxCell id="Q6YV-AhHRd9khnx2x_jg-30" value="relation" style="edgeStyle=none;rounded=1;html=1;labelBackgroundColor=none;startArrow=none;startFill=0;startSize=5;endArrow=classicThin;endFill=1;endSize=5;jettySize=auto;orthogonalLoop=1;strokeColor=#B3B3B3;strokeWidth=1;fontFamily=Verdana;fontSize=12;entryX=0.45;entryY=-0.033;entryDx=0;entryDy=0;entryPerimeter=0;exitX=0.5;exitY=1;exitDx=0;exitDy=0;" edge="1" parent="1" source="Q6YV-AhHRd9khnx2x_jg-32" target="Q6YV-AhHRd9khnx2x_jg-29">
          <mxGeometry relative="1" as="geometry">
            <mxPoint x="-27.50296739175633" y="190.00007861399487" as="sourcePoint" />
            <mxPoint x="45.09921766930779" y="313.45567003782344" as="targetPoint" />
          </mxGeometry>
        </mxCell>
        <mxCell id="Q6YV-AhHRd9khnx2x_jg-31" value="&lt;font style=&quot;font-size: 20px&quot;&gt;Network Security App&lt;br&gt;&amp;nbsp;React Component UI diagram&lt;/font&gt;" style="text;html=1;strokeColor=#d79b00;fillColor=#ffe6cc;align=center;verticalAlign=middle;whiteSpace=wrap;rounded=0;" vertex="1" parent="1">
          <mxGeometry x="-82.5" y="-660" width="560" height="60" as="geometry" />
        </mxCell>
        <mxCell id="Q6YV-AhHRd9khnx2x_jg-37" value="" style="edgeStyle=orthogonalEdgeStyle;rounded=0;orthogonalLoop=1;jettySize=auto;html=1;" edge="1" parent="1" source="Q6YV-AhHRd9khnx2x_jg-32" target="Q6YV-AhHRd9khnx2x_jg-36">
          <mxGeometry relative="1" as="geometry" />
        </mxCell>
        <mxCell id="Q6YV-AhHRd9khnx2x_jg-39" value="" style="edgeStyle=orthogonalEdgeStyle;rounded=0;orthogonalLoop=1;jettySize=auto;html=1;" edge="1" parent="1" source="Q6YV-AhHRd9khnx2x_jg-32" target="Q6YV-AhHRd9khnx2x_jg-38">
          <mxGeometry relative="1" as="geometry" />
        </mxCell>
        <mxCell id="Q6YV-AhHRd9khnx2x_jg-32" value="Navigation Container" style="ellipse;whiteSpace=wrap;html=1;rounded=0;shadow=1;comic=0;labelBackgroundColor=none;strokeWidth=1;fontFamily=Verdana;fontSize=12;align=center;fillColor=#b0e3e6;strokeColor=#0e8088;" vertex="1" parent="1">
          <mxGeometry x="-267.5" y="350" width="117.5" height="80" as="geometry" />
        </mxCell>
        <mxCell id="Q6YV-AhHRd9khnx2x_jg-34" value="Main Content (SideContentWrapper)" style="ellipse;whiteSpace=wrap;html=1;rounded=0;shadow=1;comic=0;labelBackgroundColor=none;strokeWidth=1;fontFamily=Verdana;fontSize=12;align=center;fillColor=#f8cecc;strokeColor=#b85450;" vertex="1" parent="1">
          <mxGeometry x="240" y="330" width="185" height="90" as="geometry" />
        </mxCell>
        <mxCell id="Q6YV-AhHRd9khnx2x_jg-36" value="Navigation Header" style="ellipse;whiteSpace=wrap;html=1;rounded=0;shadow=1;comic=0;labelBackgroundColor=none;strokeWidth=1;fontFamily=Verdana;fontSize=12;align=center;" vertex="1" parent="1">
          <mxGeometry x="-660" y="480" width="117.5" height="80" as="geometry" />
        </mxCell>
        <mxCell id="Q6YV-AhHRd9khnx2x_jg-38" value="Navigation Footer" style="ellipse;whiteSpace=wrap;html=1;rounded=0;shadow=1;comic=0;labelBackgroundColor=none;strokeWidth=1;fontFamily=Verdana;fontSize=12;align=center;" vertex="1" parent="1">
          <mxGeometry x="-120" y="490" width="117.5" height="80" as="geometry" />
        </mxCell>
        <mxCell id="Q6YV-AhHRd9khnx2x_jg-40" value="Navigation Menu (MenuWrapper)" style="ellipse;whiteSpace=wrap;html=1;" vertex="1" parent="1">
          <mxGeometry x="-470" y="490" width="120" height="80" as="geometry" />
        </mxCell>
        <mxCell id="Q6YV-AhHRd9khnx2x_jg-41" value="" style="edgeStyle=orthogonalEdgeStyle;rounded=0;orthogonalLoop=1;jettySize=auto;html=1;entryX=0.5;entryY=0;entryDx=0;entryDy=0;exitX=0.404;exitY=1.025;exitDx=0;exitDy=0;exitPerimeter=0;" edge="1" parent="1" source="Q6YV-AhHRd9khnx2x_jg-32" target="Q6YV-AhHRd9khnx2x_jg-40">
          <mxGeometry relative="1" as="geometry">
            <mxPoint x="-230" y="440" as="sourcePoint" />
            <mxPoint x="-421.25" y="480" as="targetPoint" />
            <Array as="points">
              <mxPoint x="-220" y="440" />
              <mxPoint x="-410" y="440" />
            </Array>
          </mxGeometry>
        </mxCell>
      </root>
    </mxGraphModel>
  </diagram>
</mxfile>
